REM MD5 9640fd0c0ce8c71968cb560d390149a8
FILE "PO'ed (Europe) (En,Fr,De,Es,It).bin" BINARY
  TRACK 01 MODE2/2352
    INDEX 01 00:00:00
  TRACK 02 AUDIO
    INDEX 00 08:32:00
    INDEX 01 08:34:00
  TRACK 03 AUDIO
    INDEX 00 12:20:34
    INDEX 01 12:22:34
  TRACK 04 AUDIO
    INDEX 00 13:43:12
    INDEX 01 13:45:12
REM LEADOUT 16:45:12
